<?xml version="1.0" encoding="UTF-8"?>
<svg id="svg24" width="86" height="86" version="1.1" viewBox="0 0 86 86" xml:space="preserve" xmlns="http://www.w3.org/2000/svg" xmlns:cc="http://creativecommons.org/ns#" xmlns:dc="http://purl.org/dc/elements/1.1/" xmlns:rdf="http://www.w3.org/1999/02/22-rdf-syntax-ns#" xmlns:xlink="http://www.w3.org/1999/xlink"><metadata id="metadata30"><rdf:RDF><cc:Work rdf:about=""><dc:format>image/svg+xml</dc:format><dc:type rdf:resource="http://purl.org/dc/dcmitype/StillImage"/><cc:license rdf:resource="http://creativecommons.org/licenses/by-sa/4.0/"/><dc:creator><cc:Agent><dc:title>Mirian Margiani</dc:title></cc:Agent></dc:creator><dc:date>2024</dc:date></cc:Work><cc:License rdf:about="http://creativecommons.org/licenses/by-sa/4.0/"><cc:permits rdf:resource="http://creativecommons.org/ns#Reproduction"/><cc:permits rdf:resource="http://creativecommons.org/ns#Distribution"/><cc:requires rdf:resource="http://creativecommons.org/ns#Notice"/><cc:requires rdf:resource="http://creativecommons.org/ns#Attribution"/><cc:permits rdf:resource="http://creativecommons.org/ns#DerivativeWorks"/><cc:requires rdf:resource="http://creativecommons.org/ns#ShareAlike"/></cc:License></rdf:RDF></metadata><defs id="defs28"><linearGradient id="linearGradient870" x1=".73069" x2="85.283" y1="85.269" y2=".7171" gradientTransform="translate(2e-6,9.65e-5)" gradientUnits="userSpaceOnUse"><stop id="stop872" stop-color="#8f582a" offset="0"/><stop id="stop874" stop-color="#ed914e" offset="1"/></linearGradient></defs><g id="layer3"><path id="path873" d="m1.7246 85.699c-0.78599 0-1.4238-0.63588-1.4238-1.4219v-41.277c0-8.1063 2.2589-15.685 6.1816-22.141 2.9e-4 -4.81e-4 -3e-4 -0.0015 0-2e-3 0.35635-0.58644 0.72601-1.163 1.1094-1.7305 3.1e-4 -4.54e-4 -3e-4 -0.0015 0-2e-3 0.3834-0.56746 0.7819-1.1243 1.1914-1.6719 3.2e-4 -4.24e-4 -3.2e-4 -0.0015 0-2e-3 0.40954-0.54759 0.83281-1.0845 1.2676-1.6113 3.2e-4 -3.95e-4 -3.3e-4 -0.0016 0-2e-3 3.4806-4.2173 7.7559-7.7556 12.596-10.385 1.2101-0.65734 2.4553-1.2567 3.7324-1.7969 0.63857-0.2701 1.2854-0.52616 1.9394-0.76562 1.308-0.47891 2.6454-0.89507 4.0098-1.2461 0.68218-0.17552 1.3715-0.33436 2.0664-0.47656 1.3898-0.2844 2.8048-0.50266 4.2402-0.64844 1.4355-0.14578 2.8913-0.21875 4.3652-0.21875h41.275c0.786 0 1.4238 0.63588 1.4238 1.4219v41.277c0 8.1069-2.2583 15.686-6.1816 22.143-0.35633 0.58645-0.72603 1.163-1.1094 1.7305-3e-4 4.4e-4 3e-4 0.0015 0 2e-3 -0.38337 0.56747-0.78191 1.1243-1.1914 1.6719-3e-4 4.1e-4 3.1e-4 0.0015 0 2e-3 -0.40952 0.5476-0.83282 1.0845-1.2676 1.6113-3.1e-4 3.8e-4 3.2e-4 0.0016 0 2e-3 -0.43509 0.52722-0.88232 1.0433-1.3418 1.5488-3.2163 3.5387-7.0187 6.5352-11.254 8.8359-1.2101 0.65734-2.4553 1.2567-3.7324 1.7969-0.63857 0.2701-1.2854 0.52616-1.9394 0.76562-1.308 0.47891-2.6454 0.89507-4.0098 1.2461-0.68218 0.17552-1.3715 0.33436-2.0664 0.47656-1.3898 0.2844-2.8048 0.50266-4.2402 0.64844s-2.8913 0.21875-4.3652 0.21875z" fill="#e5dfd3"/><path id="path8" d="m1.7246 85.699c-0.78599 0-1.4238-0.63588-1.4238-1.4219v-41.277c0-8.1063 2.2589-15.685 6.1816-22.141 2.9e-4 -4.81e-4 -3e-4 -0.0015 0-2e-3 0.35635-0.58644 0.72601-1.163 1.1094-1.7305 3.1e-4 -4.55e-4 -3e-4 -0.0015 0-2e-3 0.3834-0.56746 0.7819-1.1243 1.1914-1.6719 3.2e-4 -4.24e-4 -3.2e-4 -0.0015 0-2e-3 0.40954-0.54759 0.83281-1.0845 1.2676-1.6113 3.2e-4 -3.95e-4 -3.3e-4 -0.0016 0-2e-3 3.4806-4.2173 7.7559-7.7556 12.596-10.385 1.2101-0.65734 2.4553-1.2567 3.7324-1.7969 0.63857-0.2701 1.2854-0.52616 1.9394-0.76562 1.308-0.47891 2.6454-0.89507 4.0098-1.2461 0.68218-0.17552 1.3715-0.33436 2.0664-0.47656 1.3898-0.2844 2.8048-0.50266 4.2402-0.64844 1.4355-0.14578 2.8913-0.21875 4.3652-0.21875h41.275c0.786 0 1.4238 0.63588 1.4238 1.4219v41.277c0 8.1069-2.2583 15.686-6.1816 22.143-0.35633 0.58645-0.72603 1.163-1.1094 1.7305-3e-4 4.4e-4 3e-4 1e-3 0 2e-3 -0.38337 0.56748-0.78191 1.1243-1.1914 1.6719-3e-4 4.1e-4 3.1e-4 2e-3 0 2e-3 -0.40952 0.5476-0.83282 1.0845-1.2676 1.6113-3.1e-4 3.8e-4 3.2e-4 2e-3 0 2e-3 -0.43509 0.52721-0.88232 1.0433-1.3418 1.5488-3.2163 3.5388-7.0187 6.5352-11.254 8.8359-1.2101 0.65734-2.4553 1.2567-3.7324 1.7969-0.63857 0.27009-1.2854 0.52616-1.9394 0.76562-1.308 0.47892-2.6454 0.89507-4.0098 1.2461-0.68218 0.17551-1.3715 0.33435-2.0664 0.47656-1.3898 0.28439-2.8048 0.50266-4.2402 0.64844-1.4355 0.14577-2.8913 0.21875-4.3652 0.21875z" fill="url(#linearGradient870)"/><circle id="path1" cx="43" cy="43" r="31.111" fill="#e29a65" stroke="#e3e1d4" stroke-linecap="round" stroke-width="5"/><path id="path6" d="m12.862 49.98c2.1e-5 -0.50456 0.7745-6.61 2.2296-9.1444 1.4551-2.5344 3.9328-4.1937 6.1982-3.8668 2.2653 0.32694 4.3181 2.6401 6.322 3.4696 2.0038 0.82945 3.9585 0.17516 5.7037-1.3028 1.7451-1.478 3.2805-3.7795 5.3513-4.5573 2.0708-0.77786 4.6767-0.03204 6.6881 0.6416 2.0113 0.67364 3.4279 1.2751 4.8423 0.54909 1.4144-0.72597 2.8265-2.7793 4.3179-4.3925 1.4914-1.6133 3.1331-2.8396 4.8242-3.0854 1.6911-0.2459 3.4317 0.48858 5.2713 0.48986 1.8396 0.0013 3.8044-0.74057 5.7562-1.4775-0.02877 3.488-0.05755 6.9761-0.78703 10.14-0.72949 3.1638-2.1596 6.0035-3.7318 7.9971-1.5722 1.9936-3.2864 3.141-4.5326 2.5932-1.2462-0.54778-2.0245-2.7907-3.1963-3.0871-1.1718-0.29645-2.7371 1.3535-3.9612 2.7454-1.2241 1.3919-2.107 2.5257-3.2386 4.6231-1.1316 2.0973-2.5119 5.1581-4.2308 5.1451s-3.7764-3.0998-5.2726-3.7385-2.4312 1.1709-3.4309 1.9256c-0.99968 0.7547-2.064 0.45455-3.2756 1.9062s-2.5703 4.6548-4.6593 4.7486c-2.089 0.09377-4.9081-2.922-7.6934-4.7509-2.7853-1.8289-5.5367-2.4709-7.1135-3.4508-1.5768-0.97995-2.381-3.6157-2.381-4.1202z" fill="#da3635" fill-opacity=".31198"/><path id="path3" transform="translate(-.34767 -1.4726)" d="m13.119 51.661c2.5445-2.887 5.0891-5.774 7.6336-8.6609 2.0886 2.21 4.1772 4.42 5.8773 7.0732 1.7002 2.6532 3.0118 5.7495 4.3234 8.8458 1.3352-3.4642 2.6545-6.8869 3.84-9.5718s2.1813-4.505 3.5215-6.0139c1.3402-1.5089 3.0127-2.6846 4.6853-3.8603 1.1613 1.1757 2.3226 2.3514 3.2257 4.0825 0.90303 1.7311 1.5477 4.0176 2.1925 6.3042 2.6709-2.2865 5.3417-4.5731 7.2732-7.3025 1.9315-2.7294 3.1235-5.9015 4.3155-9.0736 0 0 3.481 9.5165 3.481 9.5165 2.3937-4.7413 4.7873-9.4827 7.181-14.224" fill="none" stroke="#da3635" stroke-linecap="round" stroke-width="1.5"/></g></svg>
